<?xml version="1.0" standalone="no"?>
<!DOCTYPE svg PUBLIC "-//W3C//DTD SVG 20010904//EN"
 "http://www.w3.org/TR/2001/REC-SVG-20010904/DTD/svg10.dtd">
<svg version="1.0" xmlns="http://www.w3.org/2000/svg"
 width="512.000000pt" height="512.000000pt" viewBox="0 0 512.000000 512.000000"
 preserveAspectRatio="xMidYMid meet">
<metadata>
Created by potrace 1.14, written by Peter Selinger 2001-2017
</metadata>
<g transform="translate(0.000000,512.000000) scale(0.100000,-0.100000)"
fill="#000000" stroke="none">
<path d="M0 2560 l0 -2560 2560 0 2560 0 0 2560 0 2560 -2560 0 -2560 0 0
-2560z m2449 1635 c133 -32 243 -119 302 -240 l34 -70 3 -347 3 -348 229 0
c127 0 230 -2 230 -6 0 -9 -681 -719 -690 -719 -9 0 -690 710 -690 720 0 3
104 5 230 5 l230 0 0 510 0 510 28 0 c15 0 56 -7 91 -15z m-739 -1660 l0 -365
799 0 798 0 34 23 c67 44 69 56 69 400 l0 307 155 0 155 0 0 -320 c0 -195 -4
-340 -11 -372 -36 -170 -176 -298 -359 -327 -42 -7 -402 -11 -1007 -11 l-943
0 0 515 0 515 155 0 155 0 0 -365z m-471 -1556 c50 -17 81 -80 81 -163 0 -76
-14 -111 -60 -150 -26 -21 -42 -26 -89 -26 -67 0 -105 22 -127 76 -20 47 -18
151 4 194 34 68 112 96 191 69z m898 -147 c34 -86 65 -165 68 -174 6 -15 2
-18 -24 -18 -27 0 -34 5 -47 35 -14 34 -15 35 -73 35 -59 0 -60 0 -71 -35 -10
-31 -16 -35 -46 -35 l-34 0 21 53 c12 28 41 103 65 165 24 63 46 118 50 123
16 26 34 -5 91 -149z m835 148 c21 -6 44 -21 53 -33 28 -40 16 -104 -27 -138
-20 -16 -19 -17 27 -88 27 -39 50 -69 52 -67 3 2 19 75 37 163 42 203 50 207
102 51 l38 -113 34 113 c28 89 39 112 54 112 10 0 18 -3 18 -6 0 -4 14 -71 30
-151 37 -177 37 -183 6 -183 -25 0 -33 21 -52 140 -4 23 -10 38 -14 33 -4 -4
-20 -45 -35 -90 -16 -49 -32 -83 -40 -83 -7 0 -21 21 -31 48 -10 26 -25 67
-35 92 l-17 45 -12 -60 c-25 -129 -19 -120 -86 -123 l-60 -3 -49 73 c-28 40
-58 74 -67 76 -16 3 -18 -6 -18 -72 l0 -76 -30 0 -30 0 0 169 c0 153 2 170 18
174 32 9 97 7 134 -3z m685 -148 c34 -86 65 -165 68 -174 6 -15 2 -18 -24 -18
-27 0 -34 5 -47 35 -14 34 -15 35 -73 35 -59 0 -60 0 -71 -35 -10 -31 -16 -35
-46 -35 l-34 0 21 53 c12 28 41 103 65 165 24 63 46 118 50 123 16 26 34 -5
91 -149z m300 132 c15 -11 30 -33 34 -49 10 -34 -11 -88 -39 -106 -19 -12 -18
-15 29 -85 27 -40 49 -76 49 -79 0 -3 -15 -5 -32 -5 -30 0 -37 7 -81 76 -63
98 -81 98 -85 -4 l-3 -72 -29 0 -30 0 0 169 c0 194 -8 181 103 177 39 -2 66
-9 84 -22z m-3127 -82 l75 -97 3 98 3 97 29 0 30 0 0 -170 c0 -136 -3 -170
-13 -170 -8 0 -51 48 -95 107 l-82 106 0 -106 0 -107 -30 0 -30 0 0 170 c0
209 3 211 110 72z m754 -5 l31 -99 35 101 c24 71 39 101 49 99 9 -2 27 -41 45
-96 17 -50 33 -92 36 -92 3 0 19 43 34 95 28 91 30 95 57 95 16 0 29 -5 29
-11 0 -33 -103 -329 -114 -329 -8 0 -29 45 -52 107 l-38 108 -35 -108 c-25
-76 -40 -107 -50 -105 -9 2 -35 64 -68 163 -29 88 -53 163 -53 168 0 5 14 7
32 5 30 -3 32 -6 62 -101z m916 78 c0 -24 -3 -25 -55 -25 l-55 0 0 -145 0
-145 -30 0 -30 0 0 145 0 145 -55 0 c-52 0 -55 1 -55 25 l0 25 140 0 140 0 0
-25z m260 0 c0 -25 -1 -25 -80 -25 l-80 0 0 -40 0 -40 60 0 c57 0 60 -1 60
-25 0 -24 -3 -25 -60 -25 l-60 0 0 -50 0 -50 80 0 80 0 0 -30 0 -30 -110 0
-110 0 0 170 0 170 110 0 110 0 0 -25z m1362 -52 l3 -78 55 77 c49 68 59 77
88 77 17 1 32 -1 32 -4 0 -5 -55 -83 -91 -131 -5 -6 17 -47 51 -100 33 -49 60
-92 60 -96 0 -5 -13 -8 -30 -8 -26 0 -36 9 -76 70 -26 39 -50 70 -54 70 -18 0
-40 -53 -40 -95 0 -43 -1 -45 -30 -45 l-30 0 0 170 0 170 30 0 29 0 3 -77z"/>
<path d="M1125 918 c-23 -20 -29 -35 -33 -81 -2 -31 -1 -68 2 -82 16 -64 82
-84 133 -41 26 23 28 29 28 100 0 85 -15 110 -71 122 -24 4 -37 0 -59 -18z"/>
<path d="M2042 822 l-21 -62 40 0 c21 0 39 1 39 3 0 1 -9 29 -19 61 l-18 59
-21 -61z"/>
<path d="M2880 880 c0 -43 3 -50 19 -50 38 0 70 19 77 45 9 36 -11 55 -57 55
l-39 0 0 -50z"/>
<path d="M3562 822 l-21 -62 40 0 c21 0 39 1 39 3 0 1 -9 29 -19 61 l-18 59
-21 -61z"/>
<path d="M3832 883 c3 -54 19 -63 69 -42 27 10 30 16 27 48 -3 35 -4 36 -51
39 l-48 3 3 -48z"/>
</g>
</svg>
